<svg xmlns="http://www.w3.org/2000/svg" version="1.1" xmlns:xlink="http://www.w3.org/1999/xlink" xmlns:svgjs="http://svgjs.dev/svgjs" viewBox="0 0 800 800"><defs><linearGradient x1="50%" y1="0%" x2="50%" y2="100%" id="ccchaos-grad"><stop stop-color="hsl(0, 0%, 53%)" stop-opacity="1" offset="0%"></stop><stop stop-color="hsl(0, 0%, 80%)" stop-opacity="1" offset="100%"></stop></linearGradient></defs><g stroke-width="2" stroke="url(#ccchaos-grad)" fill="none" stroke-linecap="round"><path d="M378.6 67.63Q388.28 70.97 398.42 74.33 409.01 77.76 420.04 81.31 431.47 85 443.28 88.87 455.4 92.96 467.8 97.3 480.4 101.91 493.13 106.81 505.92 112.01 518.69 117.52 531.37 123.35 543.86 129.48 556.09 135.9 567.98 142.59 579.46 149.53 590.47 156.68 600.94 164 610.83 171.46 620.1 179.01 628.73 186.59 636.71 194.15 644.03 201.65 650.71 209.04 656.78 216.25 667.04 229.83 675.97 242.52 676.54 256.3 663.91 275.04 656.3 285.75 650.97 296.45 648.36 307.16 648.65 317.86 651.83 328.57 657.65 339.28 665.66 349.98 675.25 360.69 685.66 371.4 696.1 382.1 705.76 392.81 713.89 403.52 719.87 414.22 723.22 424.93 723.7 435.63 721.26 446.34 716.1 457.05 708.61 467.75 699.38 478.46 689.1 489.17 678.59 499.87 668.65 510.58 660.05 521.29 653.46 531.99 649.38 542.7 648.13 553.41 649.81 564.11 654.28 574.82 663.7 593.55 662.4 606.26 647.89 616.91 635.92 621.7 623.41 623.14 609.1 624.02 600.85 624.37 591.97 624.83 582.48 625.5 572.41 626.47 561.8 627.84 550.7 629.69 539.16 632.09 527.26 635.12 515.06 638.81 502.65 643.21 490.09 648.35 477.48 654.23 464.87 660.84 452.35 668.16 440 676.16 427.86 684.77 416 693.95 404.47 703.6 393.32 713.64 382.56 723.97 369.89 724.27 357.6 724.13 345.33 722.25 332.73 718.81 319.08 712.17 304.6 703.38 296.8 697.71 288.68 691.33 280.22 684.28 271.43 676.59 262.34 668.34 252.95 659.59 243.31 650.42 233.43 640.91 223.37 631.17 213.15 621.29 202.81 611.37 192.4 601.51 181.97 591.81 171.54 582.35 161.16 573.23 150.86 564.53 140.67 556.3 130.62 548.62 120.72 541.52 110.99 535.04 109.33 525.09 108.03 515.14 107.18 505.19 106.87 495.25 107.1 485.3 107.87 475.35 109.11 465.4 110.73 455.46 112.6 445.51 114.58 435.56 116.51 425.62 118.25 415.67 119.66 405.72 120.63 395.77 121.09 385.83 121 375.88 120.37 365.93 119.24 355.99 117.71 346.04 115.9 336.09 113.93 326.14 111.97 316.2 110.17 306.25 108.66 296.3 107.57 286.36 106.97 276.41 106.91 266.46 107.4 256.52 108.41 246.57 109.84 236.62 111.59 226.68 113.53 216.73 123.5 212.65 133.59 208.9 143.78 205.45 154.03 202.25 164.32 199.26 174.6 196.42 184.85 193.69 195.02 191.01 205.07 188.33 214.96 185.6 224.66 182.76 234.13 179.77 243.34 176.59 252.28 173.18 260.92 169.51 269.26 165.56 277.27 161.29 284.98 156.72 292.39 151.82 299.52 146.6 306.4 141.08 313.06 135.26 319.53 129.16 325.88 122.83 332.14 116.27 338.38 109.54 344.65 102.67 351.01 95.7 357.53 88.67 364.26 81.62 374.93 71.11 378.6 67.63" stroke-dasharray="11 2" transform="rotate(0, 400, 400)" opacity="1.00"></path><path d="M382.19 80.25Q392.45 83.39 403.1 86.57 414.1 89.8 425.41 93.14 437 96.61 448.82 100.26 460.81 104.11 472.91 108.18 485.06 112.51 497.18 117.11 509.22 122 521.1 127.18 532.75 132.66 544.11 138.43 555.11 144.49 565.69 150.82 575.81 157.39 585.42 164.19 594.49 171.18 602.99 178.32 610.9 185.58 618.23 192.91 624.98 200.27 631.17 207.6 641.79 221.94 651.09 235.8 658.9 248.44 666.27 260.15 656.98 270.44 648.97 280.73 642.83 291.03 638.98 301.32 637.71 311.61 639.11 321.91 643.07 332.2 649.32 342.49 657.4 352.79 666.74 363.08 676.67 373.37 686.48 383.67 695.46 393.96 702.99 404.25 708.51 414.55 711.64 424.84 712.15 435.13 710 445.43 705.35 455.72 698.52 466.01 690.02 476.31 680.44 486.6 670.47 496.89 660.83 507.19 652.19 517.48 645.19 527.78 640.32 538.07 637.93 548.36 638.19 558.66 641.08 568.95 644.99 593.75 638.15 603.59 623.24 608.81 610.96 610.88 598.36 611.71 584.12 612.78 576.03 613.67 567.37 614.88 558.17 616.51 548.47 618.62 538.28 621.26 527.66 624.49 516.66 628.36 505.34 632.87 493.76 638.07 481.97 643.94 470.06 650.47 458.08 657.65 446.11 665.43 434.2 673.76 422.42 682.6 410.82 691.86 399.45 701.47 388.36 711.35 368.26 711.13 353.53 709.8 340.6 706.16 326.85 700.8 319.44 697.02 311.71 692.57 303.65 687.45 295.27 681.68 286.58 675.27 277.6 668.27 268.35 660.71 258.86 652.65 249.17 644.16 239.3 635.3 229.3 626.17 219.2 616.83 209.05 607.39 198.88 597.92 188.73 588.51 178.63 579.25 168.61 570.21 158.7 561.48 148.93 553.12 139.32 545.19 129.87 537.75 120.6 530.83 119.07 521.24 117.97 511.65 117.37 502.07 117.32 492.48 117.82 482.89 118.82 473.3 120.27 463.72 122.06 454.13 124.06 444.54 126.12 434.95 128.11 425.36 129.87 415.78 131.28 406.19 132.24 396.6 132.69 387.01 132.58 377.43 131.93 367.84 130.79 358.25 129.23 348.66 127.37 339.08 125.34 329.49 123.29 319.9 121.35 310.31 119.68 300.73 118.39 291.14 117.57 281.55 117.28 271.96 117.54 262.38 118.33 252.79 119.61 243.2 127.01 227.07 142.46 217.28 152.28 214.29 162.2 211.48 172.18 208.82 182.2 206.25 192.23 203.74 202.22 201.23 212.14 198.68 221.95 196.03 231.63 193.25 241.12 190.29 250.41 187.13 259.46 183.72 268.24 180.05 276.75 176.1 284.95 171.85 292.86 167.29 300.45 162.43 307.74 157.27 314.74 151.82 321.48 146.09 327.96 140.12 334.23 133.92 340.33 127.52 346.29 120.96 352.17 114.28 358.02 107.5 363.89 100.67 369.84 93.83 379.05 83.63 382.19 80.25" stroke-dasharray="7 9" transform="rotate(4.04, 400, 400)" opacity="0.96"></path><path d="M387.85 92.87Q398.45 95.83 409.3 98.81 420.39 101.85 431.66 104.99 443.06 108.25 454.55 111.67 466.07 115.28 477.56 119.1 488.95 123.15 500.2 127.46 511.24 132.04 522.02 136.89 532.48 142.02 542.57 147.43 552.26 153.12 561.49 159.08 570.25 165.28 578.5 171.71 586.24 178.34 593.46 185.15 600.15 192.09 606.34 199.13 617.1 213.35 626.63 227.5 634.64 241.11 642.13 254.15 643.55 268.1 634.74 285.81 630.07 295.67 627.63 305.54 627.59 315.41 629.95 325.28 634.55 335.15 641.1 345.02 649.16 354.89 658.19 364.76 667.61 374.63 676.78 384.5 685.12 394.37 692.06 404.24 697.15 414.11 700.06 423.98 700.59 433.85 698.7 443.72 694.53 453.59 688.35 463.45 680.55 473.32 671.67 483.19 662.28 493.06 653.01 502.93 644.46 512.8 637.19 522.67 631.7 532.54 628.33 542.41 627.31 552.28 628.72 562.15 629.45 584.81 621.93 592.95 608.08 596.9 597.23 598.56 586.55 599.56 574.54 600.95 560.11 603.74 544.19 607.76 535.38 610.62 526.11 614.04 516.42 618.04 506.34 622.65 495.92 627.87 485.21 633.71 474.26 640.14 463.12 647.15 451.85 654.7 440.51 662.75 429.15 671.25 417.83 680.12 406.61 689.31 395.52 698.73 376.06 698.37 361.24 697.09 347.82 693.81 333.49 689 325.77 685.61 317.74 681.62 309.4 677.02 300.78 671.82 291.89 666.03 282.76 659.68 273.42 652.79 263.9 645.42 254.23 637.61 244.46 629.43 234.6 620.92 224.71 612.18 214.82 603.27 204.95 594.26 195.15 585.23 185.44 576.25 175.84 567.41 166.38 558.77 157.07 550.4 147.92 542.36 138.95 534.7 130.16 527.47 128.85 518.23 128 508.99 127.69 499.76 127.92 490.52 128.68 481.28 129.92 472.05 131.57 462.81 133.51 453.58 135.61 444.34 137.73 435.1 139.75 425.87 141.51 416.63 142.91 407.39 143.86 398.16 144.28 388.92 144.16 379.69 143.51 370.45 142.35 361.21 140.78 351.98 138.89 342.74 136.81 333.5 134.68 324.27 132.63 315.03 130.81 305.79 129.33 296.56 128.28 287.32 127.75 278.08 127.76 268.85 128.31 259.61 129.37 250.37 136.35 235.02 151.12 226.11 160.54 223.49 170.07 221.01 179.7 218.62 189.41 216.27 199.15 213.92 208.9 211.53 218.64 209.06 228.31 206.47 237.9 203.71 247.36 200.76 256.67 197.59 265.79 194.18 274.69 190.5 283.35 186.55 291.75 182.31 299.86 177.77 307.69 172.96 315.21 167.85 322.44 162.49 329.37 156.87 336.02 151.02 342.41 144.96 354.39 132.29 365.85 119.28 382.35 99.46 387.85 92.87" stroke-dasharray="9 8" transform="rotate(8.08, 400, 400)" opacity="0.92"></path><path d="M394.94 105.5Q405.54 108.27 416.28 111.07 427.12 113.93 438 116.87 448.9 119.93 459.74 123.13 470.49 126.5 481.1 130.07 491.5 133.85 501.67 137.87 511.55 142.14 521.1 146.66 530.28 151.45 539.06 156.51 547.42 161.83 555.34 167.41 562.8 173.23 569.8 179.28 576.33 185.54 582.42 191.98 593.12 205.35 602.7 218.99 610.83 232.71 618.41 246.26 625.7 259.13 633.22 271.39 626.44 280.82 621.27 290.26 618.03 299.7 616.9 309.13 617.95 318.57 621.13 328 626.24 337.44 632.97 346.87 640.92 356.31 649.59 365.74 658.47 375.18 667.02 384.62 674.72 394.05 681.1 403.49 685.78 412.92 688.48 422.36 689.02 431.79 687.39 441.23 683.67 450.66 678.09 460.1 670.99 469.53 662.81 478.97 654.02 488.4 645.18 497.84 636.81 507.27 629.42 516.71 623.46 526.14 619.28 535.58 617.15 545.01 617.19 554.45 608.52 579.1 598.59 584.02 584.69 586.08 573.82 587.49 563.26 589.5 551.53 592.41 537.64 597.34 522.43 603.73 514.07 607.84 505.31 612.51 496.16 617.74 486.67 623.52 476.87 629.84 466.8 636.67 456.49 643.98 446.01 651.73 435.39 659.88 424.69 668.36 413.94 677.12 403.21 686.1 392.3 686.03 380.74 685.68 367.83 684.19 354.02 681.63 338.69 676.84 322.49 670.51 313.92 666.4 305.12 661.74 296.1 656.54 286.91 650.81 277.56 644.58 268.1 637.88 258.55 630.75 248.95 623.23 239.34 615.39 229.74 607.26 220.18 598.93 210.7 590.44 201.31 581.86 192.05 573.27 182.92 564.72 173.94 556.28 165.13 548.02 156.5 539.99 148.03 532.24 139.75 524.82 138.7 515.93 138.16 507.04 138.15 498.15 138.67 489.26 139.7 480.37 141.17 471.48 142.99 462.59 145.06 453.7 147.24 444.81 149.4 435.92 151.42 427.03 153.17 418.14 154.55 409.25 155.47 400.36 155.87 391.47 155.73 382.58 155.07 373.68 153.92 364.79 152.34 355.9 150.44 347.01 148.34 338.12 146.15 329.23 144.01 320.34 142.05 311.45 140.39 302.56 139.13 293.67 138.35 284.78 138.08 275.89 138.36 267 139.16 258.11 145.61 243.48 159.61 235.34 168.59 233.03 177.7 230.81 186.93 228.62 196.26 226.43 205.66 224.2 215.11 221.89 224.59 219.46 234.05 216.89 243.48 214.13 252.84 211.17 262.1 207.99 271.22 204.56 280.18 200.87 288.95 196.92 297.5 192.69 305.82 188.18 313.87 183.41 321.65 178.38 329.15 173.1 336.36 167.59 343.28 161.87 349.91 155.97 362.24 143.66 373.86 131.05 389.75 111.87 394.94 105.5" stroke-dasharray="8 7" transform="rotate(12.12, 400, 400)" opacity="0.89"></path><path d="M402.62 118.12Q423.18 123.34 443.64 128.76 463.69 134.61 482.97 141.07 501.19 148.33 518.1 156.5 533.51 165.65 547.31 175.8 559.49 186.89 570.14 198.83 579.44 211.44 587.67 224.5 595.19 237.78 602.4 250.99 609.77 263.85 617.76 276.12 608.61 294.11 606.76 312.1 612.62 330.09 624.91 348.08 640.93 366.07 657.18 384.05 670.11 402.04 676.9 420.03 676.05 438.02 667.75 456.01 653.82 474 637.31 491.99 621.82 509.98 610.74 527.97 606.5 545.96 610.02 563.95 600.02 567.8 591.26 570.39 575.78 573.16 560.15 575.72 551.22 578.01 541.12 581.54 529.64 586.65 516.63 593.58 502.06 602.48 485.99 613.39 468.57 626.2 449.99 640.71 430.54 656.6 410.52 673.48 399.21 673.34 386.83 672.9 373.28 671.65 358.55 669.18 342.72 665.14 325.9 659.28 308.29 651.47 290.09 641.69 271.55 630.03 252.92 616.72 234.41 602.06 216.24 586.41 198.57 570.21 181.52 553.92 165.13 537.97 149.44 522.8 148.5 505.7 149.63 488.6 152.59 471.5 156.73 454.41 161.15 437.31 164.87 420.21 167.09 403.11 167.32 386.01 165.5 368.92 162.04 351.82 157.7 334.72 153.42 317.62 150.13 300.52 148.57 283.42 149.06 266.32 151.51 249.23 168.03 244.89 185.17 240.8 202.85 236.67 220.93 232.23 239.25 227.24 257.6 221.49 275.77 214.83 293.5 207.17 310.6 198.49 326.85 188.81 342.12 178.24 356.29 166.92 369.35 155.03 381.34 142.79 397.49 124.26 402.62 118.12" stroke-dasharray="7 11" transform="rotate(16.16, 400, 400)" opacity="0.85"></path><path d="M409.98 130.74Q429.16 135.61 447.87 140.67 465.82 146.11 482.79 152.12 498.56 158.84 512.99 166.39 526.01 174.86 537.61 184.26 547.87 194.58 556.95 205.72 565.08 217.57 572.55 229.95 579.71 242.65 586.94 255.44 594.62 268.07 603.15 280.3 596.76 297.39 597.19 314.49 604.38 331.59 616.88 348.69 632.19 365.79 647.27 382.89 659.1 399.98 665.32 417.08 664.69 434.18 657.33 451.28 644.72 468.38 629.37 485.47 614.34 502.57 602.64 519.67 596.6 536.77 597.42 553.86 586.65 556.75 577.23 558.69 561.25 561.22 546.15 564.22 538.2 566.95 529.5 570.93 519.78 576.41 508.87 583.59 496.63 592.55 483.02 603.31 468.08 615.75 451.91 629.69 434.68 644.84 416.6 660.86 404.45 660.62 391.19 660.13 376.81 658.95 361.39 656.71 345.06 653.11 327.98 647.92 310.37 641 292.43 632.3 274.4 621.87 256.48 609.87 238.86 596.51 221.7 582.11 205.12 566.99 189.18 551.55 173.91 536.17 159.29 521.23 159.05 504.82 160.8 488.4 164.18 471.98 168.52 455.56 172.95 439.14 176.59 422.73 178.71 406.31 178.9 389.89 177.1 373.47 173.68 357.05 169.33 340.64 164.91 324.22 161.3 307.8 159.22 291.38 159.1 274.96 160.94 258.54 176.45 254.7 192.57 250.92 209.26 246.93 226.45 242.52 243.99 237.49 261.74 231.67 279.49 224.96 297.04 217.3 314.17 208.69 330.69 199.16 346.42 188.83 361.21 177.83 374.97 166.32 387.66 154.5 404.64 136.66 409.98 130.74" stroke-dasharray="3 6" transform="rotate(20.200000000000003, 400, 400)" opacity="0.81"></path><path d="M416.19 143.36Q433.52 147.89 450.11 152.6 465.77 157.65 480.35 163.21 493.73 169.41 505.87 176.37 516.79 184.17 526.55 192.83 535.29 202.36 543.22 212.69 550.58 223.74 557.65 235.38 564.75 247.42 572.21 259.68 580.36 271.94 589.49 283.98 585.71 300.19 588.15 316.39 596.36 332.59 608.86 348.79 623.38 364.99 637.28 381.19 648.05 397.39 653.74 413.59 653.3 429.79 646.83 445.99 635.49 462.19 621.34 478.4 606.95 494.6 594.92 510.8 587.44 527 585.86 543.2 574.37 545.35 564.25 546.87 547.4 549.43 532.23 553.01 524.84 556.18 517.08 560.57 508.69 566.38 499.46 573.74 489.19 582.71 477.8 593.26 465.22 605.3 451.46 618.65 436.6 633.07 420.74 648.24 407.64 647.91 393.5 647.37 378.41 646.24 362.5 644.22 345.92 641.02 328.86 636.44 311.53 630.33 294.12 622.64 276.83 613.38 259.82 602.64 243.25 590.59 227.22 577.46 211.8 563.51 197.03 549.06 182.9 534.44 169.37 519.97 169.86 504.24 172.19 488.5 175.93 472.77 180.4 457.03 184.8 441.29 188.33 425.56 190.34 409.82 190.48 394.09 188.71 378.35 185.36 362.61 181.04 346.88 176.52 331.14 172.63 315.4 170.08 299.67 169.32 283.93 170.5 268.19 184.94 264.7 199.98 261.1 215.62 257.17 231.79 252.72 248.42 247.62 265.38 241.72 282.51 234.96 299.65 227.31 316.6 218.78 333.17 209.43 349.17 199.35 364.45 188.68 378.87 177.57 392.32 166.2 410.47 149.05 416.19 143.36" stroke-dasharray="3 6" transform="rotate(24.24, 400, 400)" opacity="0.77"></path><path d="M420.5 155.98Q435.7 160.19 450.02 164.55 463.36 169.23 475.64 174.35 486.85 180.05 497 186.43 506.18 193.57 514.51 201.51 522.16 210.25 529.34 219.77 536.29 230 543.27 240.83 550.55 252.15 558.4 263.77 567.08 275.54 576.81 287.26 575.44 302.56 579.57 317.86 588.52 333.17 600.82 348.47 614.47 363.77 627.22 379.07 636.98 394.38 642.15 409.68 641.89 424.98 636.24 440.28 626.13 455.58 613.2 470.89 599.59 486.19 587.52 501.49 578.96 516.79 575.33 532.09 563.22 533.74 552.42 535.03 534.49 537.86 518.77 542.11 511.57 545.7 504.34 550.47 496.84 556.54 488.83 564.03 480.12 572.94 470.57 583.26 460.07 594.87 448.55 607.62 436 621.29 422.46 635.62 408.49 635.21 393.66 634.62 378.11 633.55 362 631.71 345.49 628.87 328.77 624.84 312.02 619.49 295.4 612.73 279.06 604.56 263.15 595.04 247.75 584.27 232.94 572.42 218.75 559.69 205.18 546.35 192.19 532.64 179.74 518.85 180.96 503.8 183.81 488.76 187.84 473.71 192.39 458.66 196.71 443.61 200.08 428.56 201.97 413.51 202.06 398.47 200.33 383.42 197.07 368.37 192.81 353.32 188.26 338.27 184.15 323.22 181.16 308.17 179.78 293.12 180.24 278.07 193.59 274.79 207.52 271.26 222.03 267.31 237.1 262.79 252.68 257.58 268.69 251.6 285.01 244.8 301.5 237.18 318.01 228.76 334.37 219.6 350.4 209.81 365.95 199.49 380.84 188.8 394.96 177.87 414.35 161.43 420.5 155.98" stroke-dasharray="1 10" transform="rotate(28.28, 400, 400)" opacity="0.73"></path><path d="M422.42 168.6Q435.39 172.49 447.47 176.53 458.64 180.83 468.88 185.53 478.24 190.75 486.79 196.57 494.65 203.07 501.97 210.3 508.92 218.27 515.71 226.97 522.55 236.36 529.67 246.36 537.29 256.88 545.62 267.8 554.85 278.95 565.14 290.2 565.91 304.61 571.4 319.01 580.81 333.42 592.75 347.83 605.46 362.23 617.07 376.64 625.88 391.05 630.57 405.45 630.47 419.86 625.58 434.27 616.63 448.67 604.93 463.08 592.22 477.49 580.35 491.89 571.08 506.3 565.78 520.71 553.17 522.06 541.79 523.29 531.53 524.62 522.28 526.3 506.35 532.04 491.77 540.63 484.73 546.91 477.51 554.46 469.91 563.27 461.77 573.29 452.95 584.44 443.35 596.57 432.9 609.5 421.56 623 406.97 622.52 391.77 621.89 376.12 620.86 360.17 619.19 344.08 616.68 328.02 613.15 312.12 608.47 296.52 602.58 281.34 595.43 266.66 587.06 252.53 577.52 239 566.94 226.06 555.47 213.69 543.3 201.85 530.63 190.46 517.7 192.36 503.35 195.67 489 199.92 474.65 204.47 460.3 208.65 445.94 211.85 431.59 213.6 417.24 213.64 402.89 211.96 388.54 208.81 374.19 204.66 359.83 200.11 345.48 195.84 331.13 192.47 316.78 190.51 302.43 190.23 288.08 202.5 284.88 215.29 281.33 228.63 277.29 242.52 272.66 256.95 267.34 271.87 261.28 287.19 254.47 302.82 246.9 318.64 238.61 334.5 229.68 350.26 220.19 365.77 210.24 380.88 199.98 395.43 189.53 415.87 173.81 422.42 168.6" stroke-dasharray="6 3" transform="rotate(32.32, 400, 400)" opacity="0.70"></path><path d="M421.72 181.23Q432.56 184.82 442.6 188.53 451.88 192.48 460.43 196.78 468.33 201.52 475.7 206.8 482.66 212.69 489.37 219.22 495.98 226.44 502.69 234.33 509.66 242.87 517.09 252.02 525.14 261.7 533.97 271.83 543.71 282.28 554.47 292.92 557.06 306.44 563.59 319.96 573.19 333.48 584.62 346.99 596.35 360.51 606.86 374.03 614.75 387.54 618.99 401.06 619.02 414.58 614.84 428.1 606.99 441.61 596.51 455.13 584.78 468.65 573.34 482.17 563.7 495.68 557.12 509.2 544.2 510.45 532.36 511.76 521.56 513.32 511.74 515.33 502.79 517.95 494.59 521.37 486.99 525.69 479.81 531.04 472.89 537.46 466.05 545.01 459.12 553.65 451.94 563.35 444.36 574.01 436.27 585.51 427.55 597.69 418.15 610.37 403.31 609.83 388.15 609.17 372.79 608.18 357.39 606.66 342.07 604.43 326.96 601.35 312.17 597.29 297.8 592.18 283.91 585.98 270.56 578.68 257.77 570.33 245.54 560.99 233.85 550.77 222.67 539.82 211.93 528.29 201.56 516.37 204.08 502.72 207.76 489.08 212.14 475.44 216.63 461.79 220.63 448.15 223.63 434.51 225.23 420.87 225.22 407.23 223.6 393.58 220.58 379.94 216.56 366.3 212.08 352.66 207.71 339.02 204.03 325.37 201.54 311.73 200.55 298.09 211.73 294.88 223.38 291.24 235.53 287.08 248.2 282.31 261.41 276.88 275.12 270.77 289.29 263.96 303.87 256.47 318.75 248.35 333.84 239.67 349.03 230.5 364.17 220.96 379.15 211.14 393.82 201.17 414.89 186.19 421.72 181.23" stroke-dasharray="8 3" transform="rotate(36.36, 400, 400)" opacity="0.66"></path><path d="M418.49 193.85Q427.45 197.14 435.79 200.54 450.63 208.25 464.31 217.12 470.76 222.42 477.19 228.29 483.76 234.76 490.6 241.86 497.87 249.56 505.69 257.85 514.2 266.66 523.49 275.94 533.65 285.6 544.74 295.53 548.81 308.17 556.05 320.81 565.62 333.45 576.4 346.08 587.13 358.72 596.57 371.36 603.6 384 607.41 396.64 607.56 409.27 604.02 421.91 597.21 434.55 587.93 447.19 577.25 459.83 566.43 472.47 556.72 485.1 549.26 497.74 536.21 499.04 524.08 500.54 512.87 502.4 502.57 504.76 493.11 507.77 484.41 511.54 476.37 516.16 468.89 521.7 461.82 528.21 455.03 535.68 448.38 544.11 441.73 553.44 434.94 563.59 427.9 574.45 420.49 585.89 412.61 597.75 398 597.16 383.31 596.47 368.66 595.52 354.16 594.13 339.91 592.16 326.01 589.47 312.53 585.97 299.52 581.57 287.02 576.23 275.05 569.93 263.6 562.69 252.67 554.54 242.2 545.56 232.16 535.84 222.48 525.5 213.08 514.68 216.12 501.76 220.08 488.85 224.5 475.93 228.85 463.01 232.64 450.09 235.42 437.17 236.86 424.25 236.8 411.34 235.25 398.42 232.38 385.5 228.53 372.58 224.15 359.66 219.75 346.75 215.85 333.83 212.89 320.91 211.23 307.99 221.36 304.68 231.89 300.9 242.85 296.59 254.3 291.69 266.23 286.17 278.66 280.02 291.58 273.24 304.94 265.87 318.69 257.96 332.76 249.55 347.08 240.74 361.53 231.61 376.01 222.25 390.41 212.77 411.55 198.56 418.49 193.85" stroke-dasharray="10 1" transform="rotate(40.400000000000006, 400, 400)" opacity="0.62"></path><path d="M413.1 206.47Q427.42 212.67 440.71 219.4 453.2 227.77 465.87 237.5 472.59 243.27 479.72 249.59 487.35 256.47 495.59 263.89 504.5 271.82 514.16 280.21 524.62 289.01 535.89 298.15 541.08 309.92 548.73 321.69 558.05 333.46 568.08 345.23 577.79 357 586.2 368.77 592.42 380.55 595.83 392.32 596.07 404.09 593.12 415.86 587.28 427.63 579.16 439.4 569.58 451.17 559.52 462.94 550.03 474.72 542.08 486.49 529.09 487.96 516.86 489.73 505.42 491.92 494.76 494.65 484.88 498 475.71 502.08 467.23 506.93 459.33 512.6 451.95 519.12 444.97 526.47 438.29 534.64 431.81 543.56 425.41 553.17 418.97 563.38 412.41 574.07 405.61 585.13 391.68 584.49 377.88 583.79 364.29 582.87 351 581.6 338.07 579.85 325.57 577.52 313.52 574.51 301.95 570.75 290.88 566.19 280.29 560.8 270.17 554.59 260.48 547.57 251.18 539.78 242.21 531.28 233.52 522.16 225.03 512.51 228.48 500.34 232.61 488.16 236.98 475.98 241.14 463.8 244.67 451.62 247.21 439.44 248.49 427.27 248.38 415.09 246.9 402.91 244.2 390.73 240.55 378.56 236.33 366.38 231.97 354.2 227.92 342.02 228.03 322.02 240.9 310.26 250.71 305.79 260.93 300.77 271.59 295.18 282.71 289.03 294.3 282.33 306.33 275.12 318.8 267.44 331.65 259.35 344.84 250.92 358.3 242.22 371.94 233.34 385.69 224.37 406.27 210.93 413.1 206.47" stroke-dasharray="5 7" transform="rotate(44.44, 400, 400)" opacity="0.58"></path><path d="M406.18 219.09Q418.66 224.72 430.71 230.79 442.92 238.25 455.75 246.88 462.76 251.97 470.23 257.55 478.23 263.62 486.82 270.19 496.05 277.23 505.95 284.72 516.54 292.63 527.81 300.89 533.77 311.81 541.54 322.73 550.43 333.65 559.64 344.56 568.33 355.48 575.75 366.4 581.22 377.32 584.25 388.24 584.57 399.16 582.15 410.07 577.21 420.99 570.19 431.91 561.72 442.83 552.56 453.75 543.53 464.67 535.43 475.59 522.71 477.31 510.59 479.4 499.1 481.93 488.27 485 478.1 488.67 468.58 492.99 459.69 498.01 451.38 503.74 443.61 510.2 436.31 517.36 429.4 525.21 422.82 533.7 416.47 542.75 410.26 552.3 404.12 562.25 397.95 572.51 385.11 571.84 372.55 571.13 360.31 570.24 348.45 569.07 337.01 567.52 326 565.5 315.44 562.92 305.33 559.73 295.66 555.87 286.41 551.31 277.55 546.05 269.04 540.07 260.82 533.41 252.85 526.1 245.06 518.19 237.41 509.74 241.15 498.32 245.32 486.89 249.56 475.47 253.47 464.05 256.71 452.63 259 441.21 260.11 429.79 259.96 418.37 258.56 406.95 256.04 395.53 252.61 384.11 248.59 372.69 244.34 361.26 240.23 349.84 239.35 330.89 250.47 319.24 259.17 314.63 268.21 309.52 277.63 303.91 287.45 297.8 297.68 291.22 308.35 284.2 319.43 276.79 330.93 269.04 342.8 261.02 355.02 252.78 367.53 244.39 380.27 235.93 399.68 223.29 406.18 219.09" stroke-dasharray="10 11" transform="rotate(48.48, 400, 400)" opacity="0.54"></path><path d="M398.54 231.71Q409.98 236.78 421.51 242.23 433.87 248.84 447.13 256.42 454.45 260.87 462.24 265.74 470.53 271.04 479.38 276.78 488.78 282.95 498.76 289.54 509.3 296.53 520.4 303.88 526.79 313.96 534.43 324.04 542.73 334.12 551.05 344.2 558.75 354.28 565.23 364.37 569.99 374.45 572.67 384.53 573.05 394.61 571.11 404.69 566.99 414.77 561.02 424.85 553.66 434.93 545.47 445.02 537.09 455.1 529.17 465.18 516.91 467.21 505.1 469.62 493.77 472.49 482.96 475.86 472.69 479.78 462.97 484.28 453.8 489.39 445.16 495.11 437.03 501.44 429.37 508.36 422.14 515.84 415.3 523.85 408.78 532.33 402.52 541.21 396.46 550.42 390.52 559.89 379.1 559.2 368.02 558.48 357.32 557.63 347.01 556.55 337.11 555.18 327.62 553.42 318.53 551.23 309.84 548.54 301.5 545.3 293.5 541.49 285.8 537.08 278.36 532.06 271.12 526.45 264.05 520.26 257.1 513.51 250.2 506.25 254.09 495.6 258.2 484.95 262.22 474.31 265.83 463.66 268.76 453.01 270.78 442.36 271.73 431.72 271.55 421.07 270.23 410.42 267.9 399.78 264.72 389.13 260.94 378.48 256.85 367.84 252.78 357.19 251.11 339.3 260.63 327.79 268.3 323.07 276.23 317.91 284.46 312.32 293.03 306.3 301.94 299.88 311.24 293.11 320.91 286.01 330.98 278.64 341.43 271.04 352.24 263.28 363.4 255.41 374.86 247.48 392.57 235.64 398.54 231.71" stroke-dasharray="7 8" transform="rotate(52.52, 400, 400)" opacity="0.51"></path><path d="M391.07 244.33Q402.13 248.87 413.64 253.73 426.4 259.53 440.18 266.13 447.75 269.98 455.77 274.18 464.24 278.75 473.18 283.7 482.59 289.03 492.46 294.73 502.78 300.81 513.53 307.23 520.02 316.49 527.31 325.75 534.91 335.01 542.31 344.27 549.03 353.53 554.63 362.79 558.74 372.05 561.09 381.31 561.51 390.57 559.99 399.83 556.63 409.09 551.64 418.35 545.35 427.61 538.19 436.87 530.61 446.12 523.13 455.38 511.52 457.73 500.21 460.45 489.25 463.61 478.67 467.22 468.51 471.32 458.78 475.93 449.5 481.04 440.67 486.68 432.29 492.81 424.34 499.43 416.8 506.51 409.65 514.02 402.86 521.9 396.38 530.11 390.18 538.58 384.21 547.27 374.38 546.57 364.91 545.85 347.24 543.92 330.65 541.3 315.7 536.96 301.58 531.33 288.5 523.29 275.81 513.73 268.43 500.1 271.21 482.26 274.94 472.4 278.21 462.54 280.81 452.69 282.56 442.83 283.35 432.97 283.13 423.12 281.91 413.26 279.77 403.4 276.85 393.54 273.35 383.69 269.5 373.83 265.55 363.97 263.3 347.18 271.41 335.87 278.14 331.09 285.05 325.94 292.18 320.41 299.56 314.54 307.23 308.34 315.2 301.85 323.5 295.1 332.14 288.14 341.13 281 350.46 273.74 360.14 266.39 370.15 259.01 385.77 247.99 391.07 244.33" stroke-dasharray="6 1" transform="rotate(56.56, 400, 400)" opacity="0.47"></path><path d="M384.63 256.96Q395.66 260.96 407.56 265.28 420.59 270.22 434.94 276.02 450.76 282.9 468.1 290.99 486.9 300.37 507.04 311.05 520.12 327.95 533.4 344.86 543.96 361.76 549.5 378.67 548.81 395.57 542.04 412.48 530.66 429.38 517.17 446.29 495.72 451.92 475.19 459.09 455.83 467.92 437.83 478.44 421.26 490.58 406.13 504.19 392.34 518.98 379.73 534.64 363.67 533.23 348.87 531.53 335.22 529.14 322.55 525.68 310.63 520.87 299.22 514.52 288.06 506.51 276.88 496.84 284.31 478.74 290.59 460.64 294.33 442.53 294.71 424.43 291.65 406.33 285.83 388.22 278.5 370.12 271.29 352.01 282.8 343.44 294.66 333.58 307.11 322.51 320.39 310.43 334.68 297.55 350.11 284.15 366.77 270.52 384.63 256.96 384.63 256.96 384.63 256.96" stroke-dasharray="9 2" transform="rotate(60.599999999999994, 400, 400)" opacity="0.43"></path><path d="M380 269.58Q391.3 273.1 403.54 276.88 416.87 281.14 431.37 286.08 447.07 291.87 463.95 298.64 481.9 306.48 500.78 315.41 512.79 330.74 524.3 346.06 533.22 361.38 537.92 376.7 537.56 392.02 532.21 407.34 522.82 422.66 511.11 437.98 491.42 444.07 472.26 451.47 453.86 460.25 436.4 470.39 420.01 481.81 404.75 494.37 390.64 507.86 377.62 522.02 364.61 520.64 352.55 519.06 341.31 516.96 330.71 514.07 320.55 510.16 310.62 505.05 300.71 498.63 290.64 490.86 297.47 474.39 302.95 457.92 306.08 441.45 306.29 424.98 303.54 408.51 298.34 392.03 291.62 375.56 284.6 359.09 294.75 350.48 305.05 340.82 315.68 330.22 326.85 318.84 338.74 306.86 351.49 294.51 365.22 282.01 380 269.58 380 269.58 380 269.58" stroke-dasharray="3 9" transform="rotate(64.64, 400, 400)" opacity="0.39"></path><path d="M377.69 282.2Q389.25 285.27 401.68 288.54 415.03 292.17 429.31 296.32 444.49 301.13 460.51 306.69 477.26 313.1 494.59 320.41 505.26 334.17 515.01 347.93 522.4 361.7 526.34 375.46 526.25 389.22 522.15 402.99 514.64 416.75 504.82 430.51 487.1 436.88 469.63 444.33 452.57 452.89 436.1 462.5 420.34 473.1 405.39 484.56 391.31 496.72 378.12 509.4 367.77 508.07 358.05 506.59 348.82 504.76 339.92 502.35 331.21 499.2 322.51 495.15 313.68 490.11 304.58 484.01 310.64 469.19 315.28 454.37 317.82 439.55 317.87 424.73 315.44 409.92 310.87 395.1 304.86 380.28 298.27 365.46 307.21 356.97 316.14 347.67 325.21 337.67 334.57 327.09 344.37 316.09 354.75 304.83 371.76 287.84 377.69 282.2" stroke-dasharray="11 5" transform="rotate(68.68, 400, 400)" opacity="0.35"></path><path d="M377.99 294.82Q389.57 297.46 401.85 300.25 414.83 303.3 428.48 306.74 442.74 310.65 457.54 315.14 472.78 320.27 488.34 326.09 497.49 338.32 505.52 350.54 511.51 362.77 514.76 374.99 514.88 387.22 511.87 399.44 506.07 411.67 498.16 423.89 482.57 430.35 467.02 437.67 451.63 445.82 436.55 454.77 421.88 464.44 407.71 474.75 394.13 485.57 381.18 496.78 365.24 494.03 349.96 490.56 334.62 484.52 318.62 476.34 323.78 463.18 327.57 450.03 329.53 436.87 329.45 423.72 327.33 410.57 323.42 397.41 318.18 384.26 312.21 371.11 320.08 362.92 327.83 354.15 335.58 344.87 343.42 335.19 351.48 325.22 359.86 315.09 373.33 299.87 377.99 294.82" stroke-dasharray="7 8" transform="rotate(72.72, 400, 400)" opacity="0.32"></path><path d="M380.86 307.44Q392.07 309.68 403.78 312.01 415.96 314.54 428.56 317.33 441.52 320.46 454.78 324 468.26 328 481.88 332.5 489.41 343.2 495.83 353.9 500.56 364.61 503.18 375.31 503.46 386.01 501.36 396.71 497.09 407.42 491.01 418.12 477.64 424.46 464.17 431.42 450.71 439 437.35 447.15 424.17 455.82 411.24 464.93 398.64 474.4 386.42 484.16 373.45 481.66 360.54 478.7 346.98 474.03 332.65 467.88 336.83 456.4 339.78 444.92 341.22 433.44 341.03 421.96 339.23 410.48 335.96 399 331.54 387.52 326.35 376.04 333.26 368.35 339.99 360.26 346.62 351.83 353.22 343.15 359.87 334.28 366.64 325.32 377.23 311.89 380.86 307.44" stroke-dasharray="4 8" transform="rotate(76.76, 400, 400)" opacity="0.28"></path><path d="M385.95 320.06Q396.35 321.91 407.04 323.83 417.98 325.88 429.15 328.1 440.5 330.54 451.97 333.25 463.52 336.28 475.07 339.65 480.99 348.84 485.92 358.03 489.54 367.22 491.6 376.41 491.97 385.6 490.64 394.78 487.67 403.97 483.28 413.16 472.14 419.15 460.85 425.57 449.48 432.42 438.08 439.65 426.7 447.22 415.41 455.1 404.24 463.22 393.26 471.54 373.96 467.28 359.44 463.4 351.45 455.09 351.91 439.13 352.89 429.32 352.61 419.52 351.11 409.71 348.48 399.91 345.75 381.7 352.44 366.04 358.12 358.58 363.71 350.97 369.23 343.26 374.75 335.5 383.13 323.91 385.95 320.06" stroke-dasharray="9 3" transform="rotate(80.80000000000001, 400, 400)" opacity="0.24"></path><path d="M392.69 332.69Q411.06 335.7 429.85 339.02 448.86 342.89 467.81 347.52 475.8 362.88 480.02 378.24 479.7 393.6 474.9 408.95 456.84 420.07 438.32 432.23 419.58 445.26 400.88 458.91 391.7 457.01 381.98 454.9 371.53 452.32 360.26 448.99 363.95 432.72 364.2 416.46 360.96 400.19 354.83 383.91 364.98 371.51 374.56 358.67 388.21 339.17 392.69 332.69" stroke-dasharray="1 4" transform="rotate(84.84, 400, 400)" opacity="0.20"></path><path d="M400.28 345.31Q415.23 347.63 430.25 350.11 445.22 352.88 460 356.08 465.47 368.42 468.44 380.75 468.55 393.09 465.8 405.42 451.97 414.86 437.71 424.89 423.15 435.41 408.39 446.28 400.52 444.69 392.14 443 379.53 433.45 375.78 412.88 373.38 399.93 368.94 386.98 377.42 376.71 385.42 366.26 396.65 350.53 400.28 345.31" stroke-dasharray="1 9" transform="rotate(88.88, 400, 400)" opacity="0.16"></path><path d="M407.84 357.93Q418.94 359.6 429.96 361.34 440.85 363.21 451.56 365.28 454.93 374.57 456.85 383.87 457.2 393.17 455.96 402.47 446.11 409.88 435.96 417.59 425.55 425.54 414.93 433.66 401.3 431.07 386.59 428.2 387.66 418.54 387.36 408.89 385.71 399.23 382.84 389.58 389.54 381.69 395.93 373.75 404.93 361.87 407.84 357.93" stroke-dasharray="7 9" transform="rotate(92.92, 400, 400)" opacity="0.13"></path><path d="M414.48 370.55Q428.66 372.7 442.45 375.03 445.27 387.49 445.38 399.96 432.84 410.33 419.72 421.04 409.71 419.28 399.03 417.42 398.94 404.62 396.4 391.83 410.11 375.86 414.48 370.55" stroke-dasharray="8 10" transform="rotate(96.96, 400, 400)" opacity="0.09"></path></g></svg>