<svg class="SiteHeader__logoIMG__17JuH" id="logo" height="42" viewBox="0 0 140 42" width="140"><path id="XMLID_127_" fill="none" d="M0 0h140v42H0z"></path><g id="ampersand"><path d="M26.46 20.573c.464.767 1.136 1.103 1.852 1.103 1.22 0 2.22-1.02 2.22-2.34 0-1.3-.92-2.24-2.22-2.24-.98 0-1.986.512-3.049 2.227-.235-1.38-1.318-2.16-2.558-2.244.369-.55.506-1.128.506-1.803 0-1.78-1.68-3.66-4.76-3.66-3.38 0-5.5 2.08-5.5 4.26 0 1.46.641 2.34 1.74 3.4-2.66.92-4.32 2.56-4.32 4.68 0 2.66 2.481 4.66 5.521 4.66 2.08 0 3.86-.84 5.26-2.4 1.64 1.74 2.72 2.4 4.2 2.4 2.14 0 3.94-1.68 4.06-4.52l-.22-.08c-.58.98-1.42 1.58-2.48 1.58-1.22 0-1.96-.5-3.24-1.92.908-1.29 1.987-2.36 2.987-3.103zm-8.129-7.578c1.08 0 1.761.88 1.761 2.2 0 .94-.376 1.923-1.16 3.1-1.413-1.284-2.34-2.2-2.34-3.44 0-1.12.74-1.86 1.74-1.86zm-.6 12.761c-1.82 0-3-1.3-3-2.84 0-.9.34-1.8 1.1-2.58 1.181 1.06 2.62 2.64 4.16 4.58-.74.58-1.439.84-2.26.84zm4.821-3.24c-.9-1.16-1.8-2.34-2.7-3.32 1.22-.601 2.005-1.143 2.518-1.695 1.055.485 1.89 1.93.182 5.015z"></path><g id="companyName"><path d="M35.695 24.524h1.53v-8.227h-1.53v-1.48h5.814v1.48h-1.513v3.196h4.368v-3.196h-1.529v-1.48h5.83v1.48h-1.53v8.227h1.53v1.479h-5.83v-1.48h1.53V20.92h-4.369v3.604h1.513v1.479h-5.814zM48.904 22.06c0-2.465 1.854-4.2 4.319-4.2 2.532 0 4.283 1.666 4.283 4.114 0 2.465-1.836 4.199-4.3 4.199-2.533 0-4.302-1.65-4.302-4.113zm5.882-.052c0-2.141-.527-2.991-1.632-2.991-1.07 0-1.53.867-1.53 3.008 0 2.16.544 2.992 1.632 2.992s1.53-.867 1.53-3.009zM58.254 22.093c0-2.413 1.785-4.232 4.182-4.232 2.685 0 3.944 1.904 3.825 4.487h-5.406c.102 1.853.832 2.465 2.108 2.465.934 0 1.547-.391 1.903-1.394h1.31c-.307 1.666-1.428 2.754-3.656 2.754-2.65 0-4.266-1.632-4.266-4.08zm2.602-.816h2.974c-.085-1.614-.527-2.26-1.445-2.26-.867 0-1.428.56-1.53 2.26zM66.805 24.575h1.156v-5.117h-1.445v-1.427h1.445v-.068c0-2.618 1.903-3.808 3.994-3.808.731 0 1.292.102 1.717.272l2.176-.255v10.403h1.292v1.428h-4.81v-1.428h1.019v-5.117h-2.89v5.117h1.02v1.428h-4.674zm6.544-6.544v-.969c-.697-.017-1.19-.408-1.19-1.156 0-.238.085-.544.22-.697-.118-.05-.288-.102-.543-.102-.85 0-1.496.425-1.496 2.363v.56h3.009zM77.242 22.093c0-2.413 1.785-4.232 4.182-4.232 2.685 0 3.944 1.904 3.825 4.487h-5.405c.101 1.853.832 2.465 2.107 2.465.935 0 1.547-.391 1.903-1.394h1.31c-.307 1.666-1.428 2.754-3.655 2.754-2.652 0-4.267-1.632-4.267-4.08zm2.602-.816h2.974c-.085-1.614-.527-2.26-1.445-2.26-.867 0-1.428.56-1.53 2.26zM85.776 24.575h1.173v-5.117h-1.173v-1.427h3.501v2.056c.477-1.478 1.395-2.21 2.483-2.21.985 0 1.614.732 1.614 1.564 0 .85-.577 1.462-1.325 1.462s-1.326-.424-1.326-1.206c0-.034.016-.086.016-.136-.441.034-1.02.544-1.308 1.53v3.484h1.478v1.428h-5.133zM93.784 23.317c0-1.631 1.155-2.482 2.635-3.043-.782-.798-1.19-1.41-1.19-2.345 0-1.48 1.342-2.754 3.366-2.754 1.937 0 2.94 1.19 2.94 2.329 0 1.292-.952 1.887-2.21 2.448.952.918 1.666 1.734 2.346 2.702.475-.578.918-1.207 1.241-1.836h-1.173v-1.41h3.824v1.428h-1.207a12.524 12.524 0 0 1-1.954 2.702c.577.816.832 1.003 1.24 1.003.425 0 .664-.255.919-1.054l.935.29c-.323 1.393-1.037 2.498-2.533 2.498-1.02 0-1.581-.34-2.43-1.377-.902.918-1.938 1.377-3.197 1.377-2.243 0-3.552-1.292-3.552-2.958zm4.352 1.394c.56 0 1.12-.187 1.699-.612-.833-1.19-1.784-2.244-2.72-3.162-.56.46-.867 1.037-.867 1.904 0 1.122.715 1.87 1.888 1.87zm.51-5.405c.663-.494.968-1.037.968-1.751 0-.697-.34-1.275-1.122-1.275-.595 0-1.054.425-1.054 1.054s.374 1.139 1.207 1.972zM106.517 20.479c0-3.485 2.481-5.933 5.405-5.933 1.428 0 2.499.493 3.179 1.326l.356-1.292h1.53v4.454h-1.682c-.681-2.057-1.632-3.094-3.043-3.094-1.598 0-2.72 1.173-2.72 4.369 0 3.06 1.173 4.368 3.094 4.368 1.682 0 2.651-1.275 2.94-3.145h1.65c-.29 2.89-1.956 4.743-4.98 4.743-3.486 0-5.73-2.346-5.73-5.796zM117.974 22.06c0-2.465 1.853-4.2 4.318-4.2 2.532 0 4.283 1.666 4.283 4.114 0 2.465-1.836 4.199-4.3 4.199-2.533 0-4.301-1.65-4.301-4.113zm5.881-.052c0-2.141-.527-2.991-1.631-2.991-1.072 0-1.53.867-1.53 3.008 0 2.16.543 2.992 1.631 2.992s1.53-.867 1.53-3.009zM126.898 24.796c0-.85.664-1.513 1.53-1.513.85 0 1.513.646 1.513 1.48 0 .849-.663 1.529-1.53 1.529-.85 0-1.513-.663-1.513-1.496z"></path></g></g></svg>